# Blender v3.4.1 OBJ File: 'leveldisajz.blend'
# www.blender.org
mtllib detection_triangle.mtl
o DetectionTriangle_Plane.001
v -0.500000 0.000000 -1.000000
v 0.000000 0.000000 0.000000
v 0.500000 0.000000 -1.000000
v -0.500000 0.050000 -1.000000
v 0.000000 0.050000 0.000000
v 0.500000 0.050000 -1.000000
vt 0.000000 0.000000
vt 0.000000 0.000000
vt 0.000000 0.000000
vt 0.000000 0.000000
vt 0.000000 0.000000
vt 0.000000 0.000000
vn 0.0000 -1.0000 0.0000
vn 0.0000 1.0000 0.0000
vn 0.8944 0.0000 0.4472
vn -0.8944 0.0000 0.4472
vn 0.0000 0.0000 -1.0000
usemtl None
s off
f 1/1/1 3/2/1 2/3/1
f 4/4/2 5/5/2 6/6/2
f 2/3/3 3/2/3 6/6/3 5/5/3
f 1/1/4 2/3/4 5/5/4 4/4/4
f 3/2/5 1/1/5 4/4/5 6/6/5
